<?xml version="1.0" standalone="no"?>
<!DOCTYPE svg PUBLIC "-//W3C//DTD SVG 20010904//EN"
 "http://www.w3.org/TR/2001/REC-SVG-20010904/DTD/svg10.dtd">
<svg version="1.0" xmlns="http://www.w3.org/2000/svg"
 width="366.000000pt" height="366.000000pt" viewBox="0 0 366.000000 366.000000"
 preserveAspectRatio="xMidYMid meet">
<metadata>
Created by potrace 1.11, written by Peter Selinger 2001-2013
</metadata>
<g transform="translate(0.000000,366.000000) scale(0.100000,-0.100000)"
fill="#000000" stroke="none">
<path d="M10 1830 l0 -1820 1820 0 1820 0 0 1820 0 1820 -1820 0 -1820 0 0
-1820z m2063 870 c41 -10 104 -32 141 -49 67 -30 196 -115 196 -129 0 -6 -66
-120 -75 -130 -1 -2 -31 19 -66 45 -122 92 -256 133 -432 133 -283 -1 -424
-102 -435 -310 -4 -73 -1 -92 18 -133 47 -100 128 -141 425 -214 262 -64 328
-85 419 -130 153 -77 227 -186 234 -348 7 -155 -31 -257 -131 -352 -69 -65
-161 -109 -283 -134 -84 -18 -123 -20 -264 -16 -182 6 -279 26 -415 87 -69 31
-222 127 -243 153 -8 10 -1 28 30 77 22 36 42 67 44 69 2 2 27 -18 56 -43 69
-61 231 -140 338 -166 121 -30 284 -36 388 -17 204 39 295 131 296 297 0 87
-19 133 -81 191 -72 69 -142 96 -449 174 -304 77 -408 123 -487 215 -56 65
-77 133 -77 243 0 146 33 239 118 329 82 87 222 154 372 177 89 14 275 4 363
-19z"/>
</g>
</svg>
